<?xml version="1.0" standalone="no"?>
<!DOCTYPE svg PUBLIC "-//W3C//DTD SVG 20010904//EN"
 "http://www.w3.org/TR/2001/REC-SVG-20010904/DTD/svg10.dtd">
<svg version="1.0" xmlns="http://www.w3.org/2000/svg"
 width="794.000000pt" height="1677.000000pt" viewBox="0 0 794.000000 1677.000000"
 preserveAspectRatio="xMidYMid meet">

<g transform="translate(0.000000,1677.000000) scale(0.100000,-0.100000)"
fill="#000000" stroke="none">
<path d="M3790 15427 c-3 -2 -43 -7 -90 -11 -125 -9 -200 -23 -222 -42 -10
-10 -70 -32 -132 -50 -329 -95 -667 -269 -964 -499 -101 -78 -124 -98 -270
-240 -322 -311 -561 -686 -692 -1085 -91 -277 -139 -481 -176 -755 -28 -202
-26 -650 4 -844 40 -256 142 -611 223 -776 50 -102 70 -125 110 -125 30 0 628
236 1094 430 288 121 388 161 391 158 1 -2 14 -66 28 -143 36 -188 131 -655
160 -782 l23 -103 -23 0 c-31 0 -31 -8 3 -152 26 -116 27 -117 57 -120 l30 -3
53 -205 c29 -113 102 -378 162 -590 l110 -385 -29 -51 c-29 -50 -60 -149 -60
-191 0 -23 2 -23 120 -23 l120 0 0 -1687 -1 -1688 -33 -158 c-20 -97 -41 -169
-53 -185 -10 -15 -47 -40 -80 -57 -34 -16 -73 -45 -88 -63 -30 -36 -30 -28 -5
-197 16 -108 29 -132 104 -187 57 -41 69 -56 108 -134 l43 -87 5 -1281 c5
-1215 6 -1284 24 -1330 31 -83 63 -126 112 -147 44 -20 46 -20 82 -2 49 24 92
88 113 170 16 63 18 159 18 1316 l1 1249 30 72 c44 105 65 131 174 210 14 10
30 33 36 50 13 40 40 200 40 241 0 42 -39 84 -112 120 -34 17 -69 41 -80 55
-11 15 -33 92 -53 185 l-35 160 0 1688 0 1687 121 0 122 0 -6 60 c-3 41 -17
84 -42 135 l-38 75 101 358 c91 322 158 566 207 755 16 63 19 67 46 67 21 0
30 6 34 23 3 12 16 69 29 127 14 57 22 108 20 112 -3 4 -14 8 -25 8 -10 0 -19
3 -19 8 0 4 13 66 29 137 32 142 156 755 166 820 11 73 -9 76 245 -30 688
-286 1214 -495 1249 -495 63 0 112 90 208 384 57 176 86 289 112 445 26 153
53 477 46 551 -3 30 -7 100 -10 155 -21 421 -156 947 -337 1310 -130 259 -327
524 -559 750 -226 220 -408 355 -688 509 -293 161 -625 265 -991 311 -64 8
-394 18 -400 12z m390 -147 c643 -76 1293 -427 1751 -946 253 -287 418 -577
537 -944 164 -510 213 -1051 136 -1520 -33 -201 -135 -552 -195 -672 l-29 -57
-317 128 c-175 71 -372 151 -438 178 -66 28 -304 125 -530 216 -225 91 -468
190 -540 220 -71 30 -220 92 -330 137 -110 45 -220 92 -245 103 -59 27 -163
99 -225 158 -194 183 -287 244 -514 339 -85 37 -114 55 -166 105 -124 121
-182 269 -173 445 6 117 30 189 103 316 30 52 55 97 55 99 0 2 28 62 61 132
73 152 89 187 186 402 60 134 81 194 113 330 48 199 98 440 136 651 15 85 31
159 35 163 4 5 31 12 60 17 80 11 432 11 529 0z m-1309 -625 c35 -19 103 -95
129 -146 30 -57 40 -169 22 -232 -24 -88 -104 -210 -181 -280 -95 -85 -274
-180 -343 -180 -73 0 -241 122 -282 205 -79 159 29 345 314 537 170 114 256
138 341 96z m-771 -979 c219 -40 398 -152 464 -291 25 -53 46 -154 46 -223 0
-52 -30 -133 -83 -225 -56 -97 -111 -152 -167 -167 -58 -16 -337 -6 -434 15
-85 18 -189 78 -244 140 -55 62 -87 163 -79 248 16 171 131 410 227 470 73 45
149 55 270 33z m406 -1202 c78 -41 211 -226 255 -357 64 -191 -27 -327 -299
-446 -541 -236 -701 -229 -832 38 -53 108 -110 288 -117 373 -8 95 12 143 88
212 86 77 185 122 332 151 288 56 498 67 573 29z m1352 -1431 l-3 -868 -31 -3
c-22 -2 -40 -14 -62 -41 -38 -47 -50 -90 -58 -213 l-7 -98 82 0 81 0 0 -290 0
-290 -51 -26 c-28 -14 -52 -24 -54 -22 -2 3 -79 280 -95 343 -8 31 -172 634
-194 715 l-13 45 31 10 c19 7 30 17 28 25 -2 8 -5 22 -7 30 -2 8 -13 59 -26
113 l-23 97 -36 0 -35 0 -28 133 c-56 267 -135 655 -156 777 -13 69 -25 132
-27 141 -3 12 25 27 118 64 68 26 141 56 163 66 22 10 90 38 150 62 61 25 135
57 165 71 101 46 90 144 88 -841z m354 843 c60 -27 150 -64 418 -173 102 -41
186 -76 188 -78 3 -3 -45 -272 -83 -460 -22 -109 -92 -442 -111 -527 l-17 -77
-35 -3 -35 -3 -28 -120 c-16 -66 -26 -126 -24 -132 2 -7 16 -13 30 -13 20 0
25 -4 21 -17 -3 -10 -17 -63 -31 -118 -14 -55 -34 -131 -44 -170 -11 -38 -61
-218 -111 -400 -111 -402 -112 -406 -119 -402 -3 2 -25 12 -48 22 l-43 18 0
294 0 293 80 0 c93 0 85 -15 70 142 -5 54 -16 110 -24 126 -24 46 -66 82 -97
82 l-29 0 0 870 c0 556 4 870 10 870 5 0 33 -11 62 -24z"/>
<path d="M4013 15164 c-46 -9 -64 -19 -95 -52 -35 -38 -38 -46 -38 -99 0 -61
21 -109 63 -144 58 -49 380 -194 521 -234 135 -39 298 19 342 122 21 48 17 99
-12 163 -48 108 -176 180 -384 216 -14 2 -48 9 -76 15 -92 18 -261 25 -321 13z"/>
<path d="M3571 14708 c-22 -145 -59 -277 -128 -453 -59 -148 -92 -219 -263
-560 -86 -170 -166 -344 -180 -385 -60 -190 -27 -360 93 -483 62 -63 118 -100
292 -191 132 -69 226 -130 280 -183 105 -102 204 -189 250 -219 57 -38 162
-84 550 -241 143 -58 274 -111 290 -119 49 -21 139 -54 151 -54 19 0 121 220
168 361 81 243 108 424 102 684 -3 99 -7 196 -10 215 -72 475 -252 835 -581
1165 -100 101 -174 164 -259 223 -135 93 -349 205 -479 251 -82 29 -233 71
-254 71 -5 0 -15 -37 -22 -82z m1024 -1253 c90 -15 175 -82 220 -172 25 -50
30 -70 30 -138 0 -68 -4 -89 -28 -137 -35 -70 -101 -131 -174 -158 -54 -20
-73 -21 -659 -20 -588 0 -605 1 -660 21 -75 28 -152 105 -179 179 -56 156 10
327 153 397 l57 28 585 5 c322 3 592 4 600 3 8 -1 33 -4 55 -8z"/>
<path d="M3365 13332 c-140 -67 -160 -249 -37 -336 139 -99 334 21 307 189
-19 121 -161 199 -270 147z"/>
<path d="M4429 13302 c-77 -49 -107 -122 -88 -214 16 -75 106 -147 185 -148
171 -1 260 203 145 334 -54 61 -168 75 -242 28z"/>
<path d="M5099 14661 c-46 -25 -91 -77 -126 -144 -25 -47 -28 -62 -28 -152 0
-93 2 -105 33 -167 76 -154 192 -261 382 -352 114 -55 149 -50 276 41 115 81
154 142 154 239 0 135 -109 279 -325 429 -164 114 -286 150 -366 106z"/>
<path d="M5824 13671 c-177 -44 -314 -124 -383 -226 -51 -75 -70 -139 -76
-255 -4 -65 0 -85 26 -149 38 -94 120 -219 162 -248 56 -39 120 -46 307 -34
193 12 267 31 365 96 109 73 149 149 149 290 0 87 -4 112 -32 194 -65 188
-141 294 -238 330 -68 26 -180 27 -280 2z"/>
<path d="M5472 12483 c-81 -39 -223 -236 -262 -362 -59 -188 10 -312 236 -425
91 -45 349 -148 444 -176 87 -27 215 -32 273 -12 70 25 130 83 175 170 73 140
131 330 133 437 1 37 -5 66 -22 100 -38 75 -162 168 -273 204 -204 66 -623
104 -704 64z"/>
</g>
</svg>
