<?xml version="1.0" standalone="no"?>
<!DOCTYPE svg PUBLIC "-//W3C//DTD SVG 20010904//EN"
 "http://www.w3.org/TR/2001/REC-SVG-20010904/DTD/svg10.dtd">
<svg version="1.0" xmlns="http://www.w3.org/2000/svg"
 width="616.000000pt" height="367.000000pt" viewBox="0 0 616.000000 367.000000"
 preserveAspectRatio="xMidYMid meet">

<g transform="translate(0.000000,367.000000) scale(0.100000,-0.100000)"
fill="#000000" stroke="none">
<path d="M3800 3332 c0 -4 -23 -15 -51 -25 -39 -14 -66 -17 -108 -12 -78 9
-212 -28 -263 -73 -14 -12 -25 -13 -58 -4 -31 7 -63 7 -124 -3 -68 -11 -97
-22 -159 -60 -42 -25 -84 -59 -94 -76 -10 -16 -21 -29 -26 -29 -11 0 -43 -37
-63 -73 -8 -16 -31 -49 -50 -74 -19 -24 -34 -50 -34 -56 0 -6 -9 -30 -20 -54
-11 -24 -29 -62 -40 -86 -11 -23 -48 -70 -82 -103 -67 -64 -165 -202 -174
-244 -3 -14 -14 -44 -25 -68 -10 -23 -19 -60 -19 -81 0 -74 -10 -99 -41 -106
-16 -4 -31 -11 -34 -16 -4 -5 -20 -9 -38 -9 -17 0 -61 -9 -97 -19 -88 -26
-167 -38 -450 -71 -180 -20 -295 -29 -465 -34 -93 -2 -210 -7 -260 -10 -49 -3
-165 -5 -258 -6 -111 0 -174 -4 -186 -12 -15 -9 -23 -9 -33 0 -9 7 -57 11
-134 11 -65 0 -126 2 -135 6 -8 3 -26 2 -40 -3 -13 -5 -49 -6 -79 -2 -30 4
-79 5 -108 2 l-52 -5 0 -182 0 -182 73 -8 c82 -10 956 -10 1122 -1 104 6 209
12 355 20 59 4 121 9 370 35 132 14 242 30 280 42 19 5 53 12 75 15 22 3 55 9
73 14 27 7 34 6 39 -8 3 -9 16 -42 28 -72 13 -30 29 -70 36 -89 7 -19 27 -53
43 -76 17 -22 40 -58 51 -80 25 -48 181 -205 249 -250 28 -19 70 -48 94 -65
23 -16 47 -30 52 -30 16 0 70 -52 70 -67 0 -27 89 -132 112 -133 4 0 28 -15
52 -34 24 -18 61 -37 81 -40 27 -5 35 -11 31 -23 -3 -8 2 -31 11 -51 19 -40
116 -161 143 -177 9 -5 40 -29 70 -52 40 -30 79 -48 146 -67 86 -25 96 -26
200 -17 161 15 215 27 293 67 39 19 74 33 80 30 5 -3 14 1 21 9 8 10 31 15 71
15 32 0 61 5 64 10 9 14 52 12 58 -2 3 -8 6 -6 6 5 1 16 23 23 60 18 7 -2 10
3 6 9 -5 7 2 9 19 4 17 -4 35 0 52 11 14 9 31 14 37 12 7 -2 30 2 51 10 29 10
42 10 52 2 9 -7 14 -8 14 -1 0 5 19 14 43 20 36 10 84 36 171 94 26 18 37 29
66 67 14 18 30 38 35 44 25 29 65 86 65 93 0 3 11 32 24 63 34 81 45 121 51
176 3 27 10 52 17 57 10 6 10 8 1 8 -7 0 -13 7 -13 16 0 8 5 12 10 9 6 -3 10
-1 10 4 0 6 -4 11 -10 11 -5 0 -10 7 -10 15 0 8 6 15 13 15 9 0 9 2 -1 9 -10
6 -10 10 3 21 8 7 15 18 15 24 0 6 -5 4 -10 -4 -5 -8 -10 -11 -10 -6 0 5 7 18
17 28 14 16 15 18 0 18 -9 0 -19 4 -22 10 -3 5 0 8 7 5 8 -3 13 3 14 17 1 13
3 34 6 48 3 14 1 31 -4 38 -7 8 -7 12 1 12 7 0 10 4 6 9 -3 5 -1 12 5 16 5 3
10 23 11 43 2 83 25 167 61 223 20 31 42 81 49 115 15 65 13 302 -1 319 -5 6
-21 47 -35 92 -15 45 -35 89 -46 99 -10 9 -19 21 -19 26 0 32 -147 184 -218
225 -26 15 -53 33 -61 40 -7 8 -29 22 -50 33 -49 26 -76 51 -94 86 -17 32 -32
48 -104 112 -26 24 -56 50 -65 59 -10 9 -25 41 -34 72 -15 53 -66 131 -124
192 -34 36 -168 99 -211 100 -19 0 -72 1 -119 3 -47 1 -104 -3 -128 -10 -35
-10 -48 -10 -70 2 -28 15 -182 20 -182 6z m650 -202 c0 -5 -2 -10 -4 -10 -3 0
-8 5 -11 10 -3 6 -1 10 4 10 6 0 11 -4 11 -10z m-1326 -305 c-7 -16 -24 -21
-24 -6 0 8 7 13 27 20 1 1 0 -6 -3 -14z m956 -115 c0 -5 -2 -10 -4 -10 -3 0
-8 5 -11 10 -3 6 -1 10 4 10 6 0 11 -4 11 -10z m649 -34 c-3 -3 -11 5 -18 17
-13 21 -12 21 5 5 10 -10 16 -20 13 -22z m-462 -23 c-11 -10 -26 8 -20 23 5
15 7 14 15 -1 6 -9 7 -19 5 -22z m411 12 c-3 -3 -9 2 -12 12 -6 14 -5 15 5 6
7 -7 10 -15 7 -18z m-1951 -21 c-9 -9 -28 6 -21 18 4 6 10 6 17 -1 6 -6 8 -13
4 -17z m2131 -39 c-3 -3 -9 2 -12 12 -6 14 -5 15 5 6 7 -7 10 -15 7 -18z
m-628 1 c0 -3 -4 -8 -10 -11 -5 -3 -10 -1 -10 4 0 6 5 11 10 11 6 0 10 -2 10
-4z m194 -71 c-4 -8 -11 -12 -16 -9 -6 4 -5 10 3 15 19 12 19 11 13 -6z m-437
-181 c-3 -3 -12 -4 -19 -1 -8 3 -5 6 6 6 11 1 17 -2 13 -5z m-17 -18 c0 -2 -7
-7 -16 -10 -8 -3 -12 -2 -9 4 6 10 25 14 25 6z m767 -18 c-3 -8 -6 -5 -6 6 -1
11 2 17 5 13 3 -3 4 -12 1 -19z m-628 -41 c-2 -1 -13 -9 -24 -17 -19 -14 -19
-14 -6 3 7 9 18 17 24 17 6 0 8 -1 6 -3z m-84 -67 c3 -5 1 -10 -4 -10 -6 0
-11 5 -11 10 0 6 2 10 4 10 3 0 8 -4 11 -10z m31 -67 c-8 -8 -12 -3 -21 27
l-7 25 17 -23 c9 -13 14 -26 11 -29z m-386 -43 c0 -5 -2 -10 -4 -10 -3 0 -8 5
-11 10 -3 6 -1 10 4 10 6 0 11 -4 11 -10z m-803 -34 c0 -8 -6 -12 -15 -9 -11
5 -11 7 0 14 7 5 13 9 14 9 0 0 1 -6 1 -14z m293 -41 c11 -13 10 -14 -4 -9 -9
3 -16 10 -16 15 0 13 6 11 20 -6z m-860 -9 c0 -2 -8 -10 -17 -17 -16 -13 -17
-12 -4 4 13 16 21 21 21 13z m327 -52 c-7 -7 -37 7 -37 17 0 6 9 5 21 -1 11
-7 19 -14 16 -16z m-697 12 c0 -2 -8 -10 -17 -17 -16 -13 -17 -12 -4 4 13 16
21 21 21 13z m2660 -20 c0 -2 -7 -9 -15 -16 -12 -10 -15 -10 -15 4 0 9 7 16
15 16 8 0 15 -2 15 -4z m-2150 -21 c10 -12 10 -15 -3 -15 -8 0 -20 7 -27 15
-10 12 -10 15 3 15 8 0 20 -7 27 -15z m-215 -5 c3 -5 1 -10 -4 -10 -6 0 -11 5
-11 10 0 6 2 10 4 10 3 0 8 -4 11 -10z m195 -46 c0 -2 -11 2 -25 8 -14 6 -25
15 -25 20 0 5 11 1 25 -8 14 -9 25 -18 25 -20z m-2282 -4 c-7 -10 -14 -17 -17
-15 -4 4 18 35 25 35 2 0 -1 -9 -8 -20z m192 10 c0 -5 -5 -10 -11 -10 -5 0 -7
5 -4 10 3 6 8 10 11 10 2 0 4 -4 4 -10z m1735 0 c3 -5 1 -10 -4 -10 -6 0 -11
5 -11 10 0 6 2 10 4 10 3 0 8 -4 11 -10z m-1220 -10 c-3 -5 -11 -10 -16 -10
-6 0 -7 5 -4 10 3 6 11 10 16 10 6 0 7 -4 4 -10z m2075 6 c0 -2 -7 -6 -15 -10
-8 -3 -15 -1 -15 4 0 6 7 10 15 10 8 0 15 -2 15 -4z m-700 -21 c7 -8 8 -15 2
-15 -5 0 -15 7 -22 15 -7 8 -8 15 -2 15 5 0 15 -7 22 -15z m-106 -21 c7 -17
-6 -18 -22 -2 -7 7 -12 15 -12 20 0 12 28 -2 34 -18z m-1934 6 c0 -5 -2 -10
-4 -10 -3 0 -8 5 -11 10 -3 6 -1 10 4 10 6 0 11 -4 11 -10z m1861 -17 c13 -17
13 -17 -6 -3 -11 8 -22 16 -24 17 -2 2 0 3 6 3 6 0 17 -8 24 -17z m2559 -8 c0
-8 -4 -15 -10 -15 -5 0 -7 7 -4 15 4 8 8 15 10 15 2 0 4 -7 4 -15z m-3234 -25
c8 0 14 -7 14 -15 0 -12 -3 -12 -20 2 -11 10 -20 22 -19 28 0 5 3 4 6 -2 2 -7
11 -13 19 -13z m-176 -17 c0 -13 -3 -13 -15 -3 -8 7 -15 16 -15 21 0 5 7 6 15
3 8 -4 15 -13 15 -21z m3520 12 c0 -8 -4 -15 -10 -15 -5 0 -10 7 -10 15 0 8 5
15 10 15 6 0 10 -7 10 -15z m-3200 -27 c0 -5 -9 -3 -20 4 -11 7 -20 16 -20 20
0 5 9 3 20 -4 11 -7 20 -16 20 -20z m-674 -5 c-7 -7 -26 7 -26 19 0 6 6 6 15
-2 9 -7 13 -15 11 -17z m189 -21 c-6 -7 -35 18 -35 31 0 5 9 2 20 -8 11 -10
18 -20 15 -23z m-421 13 c3 -8 1 -15 -3 -15 -5 0 -11 7 -15 15 -3 8 -1 15 3
15 5 0 11 -7 15 -15z m373 -21 c-3 -3 -12 -4 -19 -1 -8 3 -5 6 6 6 11 1 17 -2
13 -5z m513 -14 c0 -5 -5 -10 -11 -10 -5 0 -7 5 -4 10 3 6 8 10 11 10 2 0 4
-4 4 -10z m2707 -125 c0 -8 -4 -15 -9 -15 -10 0 -11 14 -1 23 9 10 10 9 10 -8z
m-177 -120 c0 -8 -4 -15 -10 -15 -5 0 -7 7 -4 15 4 8 8 15 10 15 2 0 4 -7 4
-15z m-665 -85 c3 -5 2 -10 -4 -10 -5 0 -13 5 -16 10 -3 6 -2 10 4 10 5 0 13
-4 16 -10z m493 -29 c-15 -5 -21 7 -13 26 7 17 8 17 15 -2 4 -11 3 -22 -2 -24z
m-739 -17 c12 -19 17 -32 11 -29 -5 3 -10 1 -10 -5 0 -6 -5 -8 -11 -5 -6 4 -8
13 -5 21 3 7 1 16 -4 19 -10 6 -14 35 -6 35 2 0 13 -16 25 -36z m-104 -54 c-3
-5 -13 -10 -21 -10 -8 0 -12 5 -9 10 3 6 13 10 21 10 8 0 12 -4 9 -10z m679
-16 c3 -8 2 -12 -4 -9 -6 3 -10 10 -10 16 0 14 7 11 14 -7z m-499 -102 c-3 -3
-11 0 -18 7 -9 10 -8 11 6 5 10 -3 15 -9 12 -12z m62 -28 c-3 -3 -12 -4 -19
-1 -8 3 -5 6 6 6 11 1 17 -2 13 -5z m503 -85 c0 -6 -4 -7 -10 -4 -5 3 -10 11
-10 16 0 6 5 7 10 4 6 -3 10 -11 10 -16z m-110 -29 c0 -5 -2 -10 -4 -10 -3 0
-8 5 -11 10 -3 6 -1 10 4 10 6 0 11 -4 11 -10z m-150 -60 c0 -5 -2 -10 -4 -10
-3 0 -8 5 -11 10 -3 6 -1 10 4 10 6 0 11 -4 11 -10z m337 -76 c-3 -3 -12 -4
-19 -1 -8 3 -5 6 6 6 11 1 17 -2 13 -5z m-372 -24 c3 -5 2 -10 -4 -10 -5 0
-13 5 -16 10 -3 6 -2 10 4 10 5 0 13 -4 16 -10z m542 -316 c-3 -3 -12 -4 -19
-1 -8 3 -5 6 6 6 11 1 17 -2 13 -5z"/>
<path d="M5290 1699 c0 -5 5 -7 10 -4 6 3 10 8 10 11 0 2 -4 4 -10 4 -5 0 -10
-5 -10 -11z"/>
</g>
</svg>
